<mxfile host="app.diagrams.net" agent="Mozilla/5.0 (Windows NT 10.0; Win64; x64) AppleWebKit/537.36 (KHTML, like Gecko) Chrome/130.0.0.0 Safari/537.36" version="24.8.3">
  <diagram name="Página-1" id="XkEbDGU_VzDwm2FBmuEu">
    <mxGraphModel dx="978" dy="558" grid="1" gridSize="10" guides="1" tooltips="1" connect="1" arrows="1" fold="1" page="1" pageScale="1" pageWidth="827" pageHeight="1169" math="0" shadow="0">
      <root>
        <mxCell id="0" />
        <mxCell id="1" parent="0" />
        <mxCell id="r07MBUFHbI0E7QoO_Aag-2" value="" style="whiteSpace=wrap;html=1;" parent="1" vertex="1">
          <mxGeometry x="250" y="40" width="410" height="370" as="geometry" />
        </mxCell>
        <mxCell id="r07MBUFHbI0E7QoO_Aag-7" value="acceder a la lista&amp;nbsp;&lt;div&gt;de materias&lt;/div&gt;" style="ellipse;whiteSpace=wrap;html=1;" parent="1" vertex="1">
          <mxGeometry x="290" y="100" width="119" height="80" as="geometry" />
        </mxCell>
        <mxCell id="r07MBUFHbI0E7QoO_Aag-8" value="ver clase de la materia" style="ellipse;whiteSpace=wrap;html=1;" parent="1" vertex="1">
          <mxGeometry x="290" y="230" width="120" height="80" as="geometry" />
        </mxCell>
        <mxCell id="r07MBUFHbI0E7QoO_Aag-10" value="Filtrar lista de materias" style="ellipse;whiteSpace=wrap;html=1;" parent="1" vertex="1">
          <mxGeometry x="520" y="100" width="100" height="70" as="geometry" />
        </mxCell>
        <mxCell id="r07MBUFHbI0E7QoO_Aag-25" value="&amp;lt;&amp;lt;extend&amp;gt;&amp;gt;" style="html=1;verticalAlign=bottom;labelBackgroundColor=none;endArrow=open;endFill=0;dashed=1;rounded=0;entryX=1;entryY=0.5;entryDx=0;entryDy=0;" parent="1" source="r07MBUFHbI0E7QoO_Aag-10" target="r07MBUFHbI0E7QoO_Aag-7" edge="1">
          <mxGeometry width="160" relative="1" as="geometry">
            <mxPoint x="530" y="290" as="sourcePoint" />
            <mxPoint x="690" y="290" as="targetPoint" />
          </mxGeometry>
        </mxCell>
        <mxCell id="MEG67yrypxuXGVYszK1P-1" value="&lt;div&gt;Usuario&amp;nbsp;&lt;/div&gt;" style="shape=umlActor;verticalLabelPosition=bottom;verticalAlign=top;html=1;outlineConnect=0;" parent="1" vertex="1">
          <mxGeometry x="145" y="164" width="30" height="60" as="geometry" />
        </mxCell>
        <mxCell id="MEG67yrypxuXGVYszK1P-2" value="&lt;div&gt;Profesor&lt;/div&gt;" style="shape=umlActor;verticalLabelPosition=bottom;verticalAlign=top;html=1;outlineConnect=0;" parent="1" vertex="1">
          <mxGeometry x="100" y="291" width="30" height="60" as="geometry" />
        </mxCell>
        <mxCell id="MEG67yrypxuXGVYszK1P-3" value="Jefe de área" style="shape=umlActor;verticalLabelPosition=bottom;verticalAlign=top;html=1;outlineConnect=0;" parent="1" vertex="1">
          <mxGeometry x="184" y="291" width="30" height="60" as="geometry" />
        </mxCell>
        <mxCell id="MEG67yrypxuXGVYszK1P-4" value="" style="endArrow=classic;html=1;rounded=0;" parent="1" edge="1">
          <mxGeometry width="50" height="50" relative="1" as="geometry">
            <mxPoint x="124" y="289" as="sourcePoint" />
            <mxPoint x="154" y="249" as="targetPoint" />
          </mxGeometry>
        </mxCell>
        <mxCell id="MEG67yrypxuXGVYszK1P-5" value="" style="endArrow=classic;html=1;rounded=0;" parent="1" edge="1">
          <mxGeometry width="50" height="50" relative="1" as="geometry">
            <mxPoint x="194" y="289" as="sourcePoint" />
            <mxPoint x="164" y="249" as="targetPoint" />
          </mxGeometry>
        </mxCell>
        <mxCell id="MEG67yrypxuXGVYszK1P-7" value="Descargar&lt;div&gt;archivo&lt;/div&gt;" style="ellipse;whiteSpace=wrap;html=1;" parent="1" vertex="1">
          <mxGeometry x="520" y="235" width="100" height="70" as="geometry" />
        </mxCell>
        <mxCell id="MEG67yrypxuXGVYszK1P-8" value="&amp;lt;&amp;lt;extend&amp;gt;&amp;gt;" style="html=1;verticalAlign=bottom;labelBackgroundColor=none;endArrow=open;endFill=0;dashed=1;rounded=0;exitX=0;exitY=0.5;exitDx=0;exitDy=0;" parent="1" source="MEG67yrypxuXGVYszK1P-7" edge="1">
          <mxGeometry width="160" relative="1" as="geometry">
            <mxPoint x="520" y="260" as="sourcePoint" />
            <mxPoint x="409" y="270" as="targetPoint" />
          </mxGeometry>
        </mxCell>
        <mxCell id="MEG67yrypxuXGVYszK1P-9" value="" style="endArrow=none;html=1;rounded=0;entryX=0;entryY=0.5;entryDx=0;entryDy=0;" parent="1" target="r07MBUFHbI0E7QoO_Aag-7" edge="1">
          <mxGeometry width="50" height="50" relative="1" as="geometry">
            <mxPoint x="190" y="200" as="sourcePoint" />
            <mxPoint x="440" y="200" as="targetPoint" />
          </mxGeometry>
        </mxCell>
        <mxCell id="MEG67yrypxuXGVYszK1P-10" value="" style="endArrow=none;html=1;rounded=0;entryX=0;entryY=0.5;entryDx=0;entryDy=0;" parent="1" target="r07MBUFHbI0E7QoO_Aag-8" edge="1">
          <mxGeometry width="50" height="50" relative="1" as="geometry">
            <mxPoint x="190" y="200" as="sourcePoint" />
            <mxPoint x="440" y="200" as="targetPoint" />
          </mxGeometry>
        </mxCell>
        <mxCell id="MEG67yrypxuXGVYszK1P-11" style="edgeStyle=orthogonalEdgeStyle;rounded=0;orthogonalLoop=1;jettySize=auto;html=1;exitX=0.5;exitY=1;exitDx=0;exitDy=0;" parent="1" source="r07MBUFHbI0E7QoO_Aag-2" target="r07MBUFHbI0E7QoO_Aag-2" edge="1">
          <mxGeometry relative="1" as="geometry" />
        </mxCell>
        <mxCell id="MEG67yrypxuXGVYszK1P-12" style="edgeStyle=orthogonalEdgeStyle;rounded=0;orthogonalLoop=1;jettySize=auto;html=1;exitX=0.5;exitY=1;exitDx=0;exitDy=0;" parent="1" source="r07MBUFHbI0E7QoO_Aag-2" target="r07MBUFHbI0E7QoO_Aag-2" edge="1">
          <mxGeometry relative="1" as="geometry" />
        </mxCell>
      </root>
    </mxGraphModel>
  </diagram>
</mxfile>
